HIERARCHY
ROOT Hips
{
	OFFSET	0.00	0.00	0.00
	CHANNELS 6 Xposition Yposition Zposition Zrotation Xrotation Yrotation
	JOINT LeftUpLeg
	{
		OFFSET	 0.126116	-0.065224	 0.014019
		CHANNELS 3 Zrotation Xrotation Yrotation
		JOINT LeftLeg
		{
			OFFSET	 0.000000	 0.569914	 0.000000
			CHANNELS 3 Zrotation Xrotation Yrotation
			JOINT LeftFoot
			{
				OFFSET	 0.000000	 0.544423	 0.000000
				CHANNELS 3 Zrotation Xrotation Yrotation
				JOINT LeftToeBase
				{
					OFFSET	 0.000000	 0.207117	 0.000000
					CHANNELS 3 Zrotation Xrotation Yrotation
					End Site
					{
						OFFSET	 0.000000	 0.207117	 0.000000
					}
				}
			}
		}
	}
	JOINT RightUpLeg
	{
		OFFSET	-0.124023	-0.065224	 0.008373
		CHANNELS 3 Zrotation Xrotation Yrotation
		JOINT RightLeg
		{
			OFFSET	 0.000000	 0.570047	 0.000000
			CHANNELS 3 Zrotation Xrotation Yrotation
			JOINT RightFoot
			{
				OFFSET	 0.000000	 0.544354	 0.000000
				CHANNELS 3 Zrotation Xrotation Yrotation
				JOINT RightToeBase
				{
					OFFSET	 0.000000	 0.207540	 0.000000
					CHANNELS 3 Zrotation Xrotation Yrotation
					End Site
					{
						OFFSET	 0.000000	 0.207540	 0.000000
					}
				}
			}
		}
	}
	JOINT Spine
	{
		OFFSET	 0.000184	 0.117403	 0.007763
		CHANNELS 3 Zrotation Xrotation Yrotation
		JOINT Spine1
		{
			OFFSET	 0.000000	 0.137269	 0.000000
			CHANNELS 3 Zrotation Xrotation Yrotation
			JOINT Spine2
			{
				OFFSET	 0.000000	 0.156879	 0.000000
				CHANNELS 3 Zrotation Xrotation Yrotation
				JOINT LeftShoulder
				{
					OFFSET	 0.080501	 0.160143	 0.002496
					CHANNELS 3 Zrotation Xrotation Yrotation
					JOINT LeftArm
					{
						OFFSET	 0.000000	 0.164363	 0.000000
						CHANNELS 3 Zrotation Xrotation Yrotation
						JOINT LeftForeArm
						{
							OFFSET	 0.000000	 0.364576	 0.000000
							CHANNELS 3 Zrotation Xrotation Yrotation
							JOINT LeftHand
							{
								OFFSET	 0.000000	 0.360812	 0.000000
								CHANNELS 3 Zrotation Xrotation Yrotation
								JOINT LeftHandIndex1
								{
									OFFSET	 0.000000	 0.086006	 0.000000
									CHANNELS 3 Zrotation Xrotation Yrotation
									JOINT LeftHandIndex2
									{
										OFFSET	 0.000000	 0.047237	 0.000000
										CHANNELS 3 Zrotation Xrotation Yrotation
										JOINT LeftHandIndex3
										{
											OFFSET	-0.004284	 0.038165	 0.000551
											CHANNELS 3 Zrotation Xrotation Yrotation
											End Site
											{
												OFFSET	-0.004284	 0.038165	 0.000551
											}
										}
									}
								}
							}
						}
					}
				}
				JOINT Neck
				{
					OFFSET	 0.000000	 0.176489	 0.000000
					CHANNELS 3 Zrotation Xrotation Yrotation
					JOINT Head
					{
						OFFSET	 0.000000	 0.077941	 0.001747
						CHANNELS 3 Zrotation Xrotation Yrotation
						End Site
						{
							OFFSET	 0.000000	 0.077941	 0.001747
						}
					}
				}
				JOINT RightShoulder
				{
					OFFSET	-0.080363	 0.159706	-0.000306
					CHANNELS 3 Zrotation Xrotation Yrotation
					JOINT RightArm
					{
						OFFSET	 0.000000	 0.164196	 0.000000
						CHANNELS 3 Zrotation Xrotation Yrotation
						JOINT RightForeArm
						{
							OFFSET	 0.000000	 0.365611	 0.000000
							CHANNELS 3 Zrotation Xrotation Yrotation
							JOINT RightHand
							{
								OFFSET	 0.000000	 0.360648	 0.000000
								CHANNELS 3 Zrotation Xrotation Yrotation
								JOINT RightHandIndex1
								{
									OFFSET	 0.000000	 0.069977	 0.000000
									CHANNELS 3 Zrotation Xrotation Yrotation
									JOINT RightHandIndex2
									{
										OFFSET	 0.000000	 0.052305	 0.000000
										CHANNELS 3 Zrotation Xrotation Yrotation
										JOINT RightHandIndex3
										{
											OFFSET	 0.009002	 0.042196	 0.000782
											CHANNELS 3 Zrotation Xrotation Yrotation
											End Site
											{
												OFFSET	 0.009002	 0.042196	 0.000782
											}
										}
									}
								}
							}
						}
					}
				}
			}
		}
	}
}
MOTION
Frames:    6
Frame Time: 0.03333334
 0.021400	 1.281647	 0.006168	-0.518934	 2.849087	-179.568200	-176.782900	 5.199003	-20.437160	 3.311119	-16.307170	 5.164994	-0.355206	 66.391770	 0.876412	 1.331492	 28.938720	-2.729976	 176.957500	 6.442129	 27.514540	-5.865491	-18.631220	-7.918666	-2.491278	 69.143540	 2.227377	-1.291762	 28.414590	 2.921218	-1.362683	 4.221899	 6.738497	-1.388582	 3.215790	 0.637434	-1.315921	 0.088107	-2.721141	-113.443800	 5.076025	 92.931640	 6.361372	 48.568930	 35.252990	 47.676190	-1.121067	 34.669900	-19.257060	-55.311840	-5.685044	-6.580301	 5.266122	 0.000000	 0.000000	 0.000000	 0.000000	 0.000000	 0.000000	 0.000000	 4.302300	-0.157162	-0.732005	 4.865975	 0.874326	-0.063216	 114.216000	-4.389263	-88.355140	-22.592430	 42.954550	-35.796070	-84.147290	-1.425982	-35.799520	-10.303570	-49.965140	-10.183850	-0.800751	 22.577800	 0.871086	 12.413050	 21.048710	-4.718123	-8.459597	 9.327177	-0.287562
 0.022005	 1.281581	 0.008416	-0.417549	 3.091781	 179.470900	-176.475600	 4.978508	-21.582820	 3.361938	-16.543660	 4.667730	-1.661063	 66.362190	 2.196046	 1.331492	 28.938720	-2.729976	 177.133500	 6.631196	 26.661030	-5.979597	-18.966730	-8.934092	-5.237289	 69.127420	 5.040741	-1.293044	 28.431770	 2.933812	-0.666977	 4.366359	-3.488506	-1.502392	 3.498804	-0.332765	-1.260509	-0.294245	-0.358522	-113.445500	 5.058467	 92.948960	 6.260983	 48.273330	 36.226730	 47.831320	-1.058854	 36.917050	-22.880570	-47.916330	-10.606840	-6.580301	 5.266122	 0.000000	 0.000000	 0.000000	 0.000000	 0.000000	 0.000000	 0.000000	 4.033109	-0.125504	-0.776206	 4.694000	 0.995634	 0.498590	 114.207700	-4.331412	-88.393680	-17.007770	 39.111950	-39.441410	-84.952770	-1.377444	-38.078980	-0.409671	-39.103140	-4.848684	-0.732543	 20.826220	 0.845863	 12.312190	 19.337010	-4.318396	-8.448488	 8.496495	-0.235184
 0.022237	 1.281760	 0.010246	-0.288062	 3.297422	 178.596700	-176.190400	 4.730784	-22.617770	 3.392001	-16.683190	 4.218751	-2.800586	 66.311510	 3.365026	 1.331492	 28.938720	-2.729976	 177.328400	 6.697782	 25.880310	-6.025496	-19.101360	-9.813963	-7.615249	 69.007280	 7.485661	-1.294201	 28.447220	 2.945146	-0.017179	 4.418117	-12.518770	-1.459232	 3.617463	-1.173739	-1.265570	-0.514498	 1.735371	-113.447100	 5.042689	 92.964560	 6.067696	 48.107160	 37.204840	 47.622010	-1.011425	 38.249070	-23.490930	-39.527840	-13.493110	-6.580301	 5.266122	 0.000000	 0.000000	 0.000000	 0.000000	 0.000000	 0.000000	 0.000000	 3.790943	-0.096845	-0.815847	 4.540565	 1.077420	 0.996548	 114.200100	-4.279357	-88.428380	-12.710120	 35.323810	-43.174760	-85.365430	-1.348273	-39.439370	 5.750260	-29.110650	-4.204074	-0.672530	 19.250510	 0.825299	 12.233040	 17.796680	-3.964930	-8.437858	 7.749170	-0.188015
 0.022354	 1.282295	 0.011116	-0.230191	 3.391289	 178.237400	-176.071200	 4.583895	-23.135330	 3.385092	-16.651200	 3.980653	-3.344304	 66.175490	 3.949371	 1.331492	 28.938720	-2.729976	 177.397400	 6.648962	 25.693780	-6.008624	-19.051880	-9.900569	-7.868137	 68.835980	 7.697239	-1.296451	 28.475740	 2.932446	 0.711518	 4.221982	-22.910800	-1.596615	 4.019548	-2.038329	-1.146352	-1.110000	 4.262654	-113.447800	 5.005482	 92.958530	 5.604011	 48.112210	 38.055070	 48.008600	-1.002960	 39.000770	-22.452480	-28.576290	-16.672060	-6.580301	 5.266122	 0.000000	 0.000000	 0.000000	 0.000000	 0.000000	 0.000000	 0.000000	 3.644741	-0.167807	-0.816314	 4.353857	 1.005143	 1.679801	 114.195700	-4.250383	-88.450700	-10.888950	 34.993630	-45.120080	-82.450960	-1.319391	-40.064690	 4.064903	-17.041240	-7.367662	-0.620203	 17.851470	 0.808650	 12.171610	 16.428680	-3.655409	-8.426946	 7.022657	-0.142095
 0.022400	 1.282820	 0.011445	-0.236781	 3.421354	 178.214300	-176.069400	 4.527681	-23.288640	 3.369791	-16.580110	 3.895308	-3.495431	 66.046350	 4.135007	 1.331492	 28.938720	-2.729976	 177.366100	 6.576306	 25.853400	-5.982193	-18.974390	-9.565860	-6.998714	 68.700980	 6.740424	-1.298874	 28.506200	 2.909375	 1.213026	 3.983426	-31.405930	-1.710723	 4.377684	-2.773764	-1.016353	-1.693914	 6.387907	-113.448000	 4.963449	 92.942260	 4.989340	 48.114420	 38.760250	 48.276470	-1.019690	 38.760330	-19.977010	-18.813040	-19.777790	-6.580301	 5.266122	 0.000000	 0.000000	 0.000000	 0.000000	 0.000000	 0.000000	 0.000000	 3.573720	-0.278681	-0.796418	 4.181107	 0.859695	 2.292750	 114.193700	-4.238413	-88.462720	-9.543091	 35.689610	-46.075980	-80.119540	-1.311224	-39.722570	 1.542046	-5.429957	-10.237570	-0.580822	 16.783800	 0.796926	 12.130170	 15.384510	-3.421649	-8.417647	 6.431476	-0.104673
 0.022422	 1.283407	 0.011757	-0.263083	 3.465206	 178.199400	-176.096700	 4.445867	-23.444810	 3.348354	-16.480550	 3.800398	-3.648922	 65.896800	 4.333336	 1.331492	 28.938720	-2.729976	 177.314900	 6.462677	 26.034400	-5.945545	-18.866780	-9.191683	-6.046216	 68.547840	 5.691040	-1.301509	 28.539510	 2.884132	 1.589133	 3.763413	-38.901660	-1.724207	 4.685473	-3.445670	-0.916714	-2.204299	 8.371504	-113.448200	 4.917496	 92.924460	 4.294661	 48.079220	 39.547770	 48.158020	-1.054416	 37.455490	-16.404520	-9.537706	-23.385640	-6.580301	 5.266122	 0.000000	 0.000000	 0.000000	 0.000000	 0.000000	 0.000000	 0.000000	 3.496075	-0.399991	-0.774812	 3.992042	 0.694388	 2.876989	 114.191400	-4.225329	-88.475860	-8.023138	 36.826480	-47.270830	-76.304490	-1.310163	-38.271230	 0.217756	 5.504364	-12.570290	-0.538234	 15.615510	 0.785042	 12.090090	 14.241770	-3.168042	-8.407042	 5.784744	-0.063670
